<?xml version="1.0" encoding="UTF-8" standalone="no"?>
<!-- Created with Inkscape (http://www.inkscape.org/) -->

<svg
        xmlns:dc="http://purl.org/dc/elements/1.1/"
        xmlns:cc="http://creativecommons.org/ns#"
        xmlns:rdf="http://www.w3.org/1999/02/22-rdf-syntax-ns#"
        xmlns="http://www.w3.org/2000/svg"
        xmlns:sodipodi="http://sodipodi.sourceforge.net/DTD/sodipodi-0.dtd"
        xmlns:inkscape="http://www.inkscape.org/namespaces/inkscape"
        width="210mm"
        height="297mm"
        viewBox="0 0 210 297"
        version="1.1"
        id="svg115"
        inkscape:version="0.92.4 (5da689c313, 2019-01-14)"
        sodipodi:docname="label.svg">
  <defs
          id="defs109"/>
  <sodipodi:namedview
          id="base"
          pagecolor="#ffffff"
          bordercolor="#666666"
          borderopacity="1.0"
          inkscape:pageopacity="0.0"
          inkscape:pageshadow="2"
          inkscape:zoom="3.959798"
          inkscape:cx="91.114374"
          inkscape:cy="572.40457"
          inkscape:document-units="mm"
          inkscape:current-layer="g1239"
          showgrid="false"
          inkscape:window-width="1920"
          inkscape:window-height="1017"
          inkscape:window-x="-8"
          inkscape:window-y="-8"
          inkscape:window-maximized="1"/>
  <metadata
          id="metadata112">
    <rdf:RDF>
      <cc:Work
              rdf:about="">
        <dc:format>image/svg+xml</dc:format>
        <dc:type
                rdf:resource="http://purl.org/dc/dcmitype/StillImage"/>
        <dc:title></dc:title>
      </cc:Work>
    </rdf:RDF>
  </metadata>
  <g
          inkscape:label="Ebene 1"
          inkscape:groupmode="layer"
          id="layer1">
    <g
            transform="matrix(0.3527778,0,0,0.3527778,-147.16093,-24.421371)"
            style="isolation:isolate"
            id="g138">
      <g
              id="g1239"
              transform="translate(-38.839283,3.4821426)">
        <path
                id="path106"
                style="fill:#ffffff;stroke:none;stroke-width:1.30442166;stroke-miterlimit:10"
                d="m 518.50313,459.91382 h 0.0522 c 7.8187,0 14.16602,6.34601 14.16602,14.1621 v 35.67072 c 0,7.81609 -6.34732,14.1621 -14.16602,14.1621 h -0.0522 c -7.8187,0 -14.16602,-6.34601 -14.16602,-14.1621 v -35.67072 c 0,-7.81609 6.34732,-14.1621 14.16602,-14.1621 z"
                inkscape:connector-curvature="0"/>
        <path
                id="path108"
                style="fill:none;stroke:#000000;stroke-width:2.60884333;stroke-linecap:square;stroke-miterlimit:2"
                d="m 518.50313,459.91382 h 0.0522 c 7.8187,0 14.16602,6.34601 14.16602,14.1621 v 35.67072 c 0,7.81609 -6.34732,14.1621 -14.16602,14.1621 h -0.0522 c -7.8187,0 -14.16602,-6.34601 -14.16602,-14.1621 v -35.67072 c 0,-7.81609 6.34732,-14.1621 14.16602,-14.1621 z"
                inkscape:connector-curvature="0"/>
        <path
                id="path110"
                stroke-miterlimit="3"
                d="m 530.49772,457.00453 q -2.03523,4.04309 -2.50169,4.9278"
                inkscape:connector-curvature="0"
                style="vector-effect:non-scaling-stroke;fill:none;stroke:#000000;stroke-width:9.23358536;stroke-linecap:square;stroke-linejoin:miter;stroke-miterlimit:3;stroke-dasharray:none"/>
        <path
                id="path112"
                stroke-miterlimit="3"
                d="m 518.53011,454.10262 q 0.0108,3.58828 0,4.38458"
                inkscape:connector-curvature="0"
                style="vector-effect:non-scaling-stroke;fill:none;stroke:#000000;stroke-width:6.96677589;stroke-linecap:square;stroke-linejoin:miter;stroke-miterlimit:3;stroke-dasharray:none"/>
        <path
                id="path114"
                stroke-miterlimit="3"
                d="m 508.98791,521.9867 q -2.01788,4.00864 -2.48037,4.88582"
                inkscape:connector-curvature="0"
                style="vector-effect:non-scaling-stroke;fill:none;stroke:#000000;stroke-width:9.15491199;stroke-linecap:square;stroke-linejoin:miter;stroke-miterlimit:3;stroke-dasharray:none"/>
        <path
                id="path116"
                stroke-miterlimit="3"
                d="m 506.57553,456.97759 q 2.016,4.03199 2.44929,4.9375"
                inkscape:connector-curvature="0"
                style="vector-effect:non-scaling-stroke;fill:none;stroke:#000000;stroke-width:9.19341755;stroke-linecap:square;stroke-linejoin:miter;stroke-miterlimit:3;stroke-dasharray:none"/>
        <path
                id="path118"
                stroke-miterlimit="3"
                d="m 518.52347,525.29225 q 0.01,3.62445 0,4.429"
                inkscape:connector-curvature="0"
                style="vector-effect:non-scaling-stroke;fill:none;stroke:#000000;stroke-width:7.0389328;stroke-linecap:square;stroke-linejoin:miter;stroke-miterlimit:3;stroke-dasharray:none"/>
        <path
                id="path120"
                stroke-miterlimit="3"
                d="m 528.1935,521.81649 q 1.95632,3.91138 2.37527,4.78954"
                inkscape:connector-curvature="0"
                style="vector-effect:non-scaling-stroke;fill:none;stroke:#000000;stroke-width:8.91556835;stroke-linecap:square;stroke-linejoin:miter;stroke-miterlimit:3;stroke-dasharray:none"/>
        <path
                id="path122"
                stroke-miterlimit="3"
                d="m 499.61511,474.46573 q 2.64786,5.7e-4 3.23508,0.016"
                inkscape:connector-curvature="0"
                style="vector-effect:non-scaling-stroke;fill:none;stroke:#000000;stroke-width:6.32435608;stroke-linecap:square;stroke-linejoin:miter;stroke-miterlimit:3;stroke-dasharray:none"/>
        <path
                id="path124"
                stroke-miterlimit="3"
                d="m 499.61511,486.07522 q 2.59739,0.003 3.17341,0.0158"
                inkscape:connector-curvature="0"
                style="vector-effect:non-scaling-stroke;fill:none;stroke:#000000;stroke-width:6.20379686;stroke-linecap:square;stroke-linejoin:miter;stroke-miterlimit:3;stroke-dasharray:none"/>
        <path
                id="path126"
                stroke-miterlimit="3"
                d="m 499.61511,497.70905 q 2.7085,5.9e-4 3.30916,0.0165"
                inkscape:connector-curvature="0"
                style="vector-effect:non-scaling-stroke;fill:none;stroke:#000000;stroke-width:6.46918392;stroke-linecap:square;stroke-linejoin:miter;stroke-miterlimit:3;stroke-dasharray:none"/>
        <path
                id="path128"
                stroke-miterlimit="3"
                d="m 499.61511,509.36566 q 2.67467,0.002 3.26784,0.0172"
                inkscape:connector-curvature="0"
                style="vector-effect:non-scaling-stroke;fill:none;stroke:#000000;stroke-width:6.38839245;stroke-linecap:square;stroke-linejoin:miter;stroke-miterlimit:3;stroke-dasharray:none"/>
        <path
                id="path130"
                stroke-miterlimit="3"
                d="m 534.07787,474.48889 q 2.75457,6.1e-4 3.36546,0.0167"
                inkscape:connector-curvature="0"
                style="vector-effect:non-scaling-stroke;fill:none;fill-opacity:1;stroke:#000000;stroke-width:6.579247;stroke-linecap:square;stroke-linejoin:miter;stroke-miterlimit:3;stroke-dasharray:none"/>
        <path
                id="path132"
                stroke-miterlimit="3"
                d="m 534.09891,486.05133 q 2.73735,0.002 3.34442,0.0166"
                inkscape:connector-curvature="0"
                style="vector-effect:non-scaling-stroke;fill:none;stroke:#000000;stroke-width:6.53811598;stroke-linecap:square;stroke-linejoin:miter;stroke-miterlimit:3;stroke-dasharray:none"/>
        <path
                id="path134"
                stroke-miterlimit="3"
                d="m 534.05522,497.73232 q 2.77312,6.1e-4 3.38811,0.0168"
                inkscape:connector-curvature="0"
                style="vector-effect:non-scaling-stroke;fill:none;stroke:#000000;stroke-width:6.62351322;stroke-linecap:square;stroke-linejoin:miter;stroke-miterlimit:3;stroke-dasharray:none"/>
        <path
                id="path136"
                stroke-miterlimit="3"
                d="m 533.8468,509.34116 q 2.94371,0.003 3.59653,0.0178"
                inkscape:connector-curvature="0"
                style="vector-effect:non-scaling-stroke;fill:none;stroke:#000000;stroke-width:7.03095913;stroke-linecap:square;stroke-linejoin:miter;stroke-miterlimit:3;stroke-dasharray:none"/>
        <g
                id="g1013"
                transform="matrix(0.08318617,0,0,0.08318617,594.41209,473.82396)">
          <g
                  id="g1011">
            <path
                    style="stroke-width:0.4014003"
                    id="path1009"
                    d="m -850.38459,-44.993822 c 0,-7.68722 -6.25342,-13.94063 -13.94023,-13.94063 -7.68682,0 -13.94063,6.25341 -13.94063,13.94063 0,4.22754 -0.58404,8.44827 -1.65819,12.6698 h -67.67649 c -0.72131,-2.85356 -1.21945,-5.71193 -1.46551,-8.57592 h 44.72603 c 2.26109,0 4.09388,-1.8328 4.09388,-4.09388 0,-2.26109 -1.83279,-4.09388 -4.09388,-4.09388 h -45.5204 c -1.75372,-5.69547 -7.06384,-9.84675 -13.32689,-9.84675 -7.68682,0 -13.94063,6.25341 -13.94063,13.94063 0,32.47127 21.03458,60.61264 45.00861,88.81744 -23.27038,27.35984 -45.00861,55.90502 -45.00861,88.818242 0,7.68681 6.25341,13.94063 13.94063,13.94063 5.94996,0 11.03891,-3.74828 13.03588,-9.00662 h 72.78952 c 1.99697,5.25834 7.08592,9.00662 13.03588,9.00662 7.68681,0 13.94063,-6.25342 13.94063,-13.94063 0,-32.54594 -21.06147,-60.649182 -45.00861,-88.817442 23.27118,-27.35985 45.00901,-55.90503 45.00901,-88.81824 z m -32.21237,20.85796 c -1.18775,2.99846 -2.59706,5.99973 -4.19223,9.00662 h -53.97228 c -1.58874,-3.00047 -2.99244,-6.00174 -4.17777,-9.00662 z m -47.26489,26.2014002 c -2.17478,-3.00407995 -4.22754,-6.00575 -6.12657,-9.00662 h 44.42578 c -1.89381,2.99365 -3.94456,5.99492005 -6.12095,9.00662 z m 25.99549,8.1881698 c -3.14818,4.0136 -6.46897,8.04968 -9.8905,12.11386 -3.41231,-4.04893 -6.74192,-8.08501 -9.90977,-12.11386 z m -65.07301,-55.24753 c 0,-3.17187 2.58101,-5.75287 5.75287,-5.75287 3.17227,0 5.75287,2.581 5.75287,5.75287 0,18.28779 9.06884,35.6503602 21.65715,52.8439402 0.23803,0.52343 0.58243,0.98664 1.00671,1.36436 4.83005,6.4998798 10.14178,12.9792798 15.63695,19.4775498 -1.71639,2.00459 -3.44843,4.01601 -5.1877,6.03666 -0.80119,0.93044 -1.60319,1.8625 -2.40519,2.79495 -22.5904,-26.65579 -42.21366,-53.15584 -42.21366,-82.51746 z m 11.50534,177.635682 c 4e-4,3.17186 -2.5806,5.75287 -5.75287,5.75287 -3.17187,0 -5.75287,-2.58101 -5.75287,-5.75287 0,-33.537002 25.83733,-63.548092 50.8241,-92.570942 24.70378,-28.69409 48.03718,-55.79744 48.03718,-85.06434 0,-3.17187 2.581,-5.75287 5.75287,-5.75287 3.17186,0 5.75287,2.581 5.75287,5.75287 0,33.53699 -25.83734,63.54809 -50.8241,92.57093 -24.70338,28.6941 -48.03718,55.797452 -48.03718,85.064352 z m 20.95871,-37.212622 c 1.86531,-2.99404 3.88997,-5.99531 6.04389,-9.00662 h 33.38887 c 2.15231,3.00368 4.17858,6.00535 6.0487,9.00662 z m 50.1654,8.187772 c 1.55383,3.00006 2.92019,6.00173 4.06458,9.00661 h -62.99375 c 1.1468,-2.99886 2.51598,-6.00013 4.07622,-9.00661 z m -37.99293,-25.382552 c 3.34206,-4.29057 6.88722,-8.60602 10.54799,-12.95359 3.64953,4.33031 7.20474,8.64616 10.56807,12.95359 z m -24.82621,51.153252 c 0.19829,-2.85998 0.65187,-5.71795 1.33466,-8.57592 h 68.08953 c 0.67676,2.85355 1.12914,5.71152 1.32622,8.57592 z m 90.55671,3.25415 c 0,3.17186 -2.58101,5.75287 -5.75287,5.75287 -3.17227,0 -5.75287,-2.58101 -5.75287,-5.75287 0,-25.69885 -17.89804,-49.557282 -38.30081,-73.685452 1.71638,-2.0046 3.44883,-4.01601 5.18769,-6.03666 0.8012,-0.93045 1.6032,-1.8625 2.4056,-2.79535 22.56511,26.61966 42.21326,53.086792 42.21326,82.517462 z"
                    inkscape:connector-curvature="0"/>
          </g>
        </g>
        <ellipse
                ry="12.019381"
                rx="10.647306"
                cy="477.07812"
                cx="518.4007"
                id="path1079"
                style="opacity:0.95800003;fill:none;fill-opacity:1;stroke:#000000;stroke-width:0.46464744;stroke-linecap:butt;stroke-miterlimit:3;stroke-dasharray:none;stroke-dashoffset:0;stroke-opacity:1"/>
        <rect
                y="497.83698"
                x="513.98163"
                height="1.1837724"
                width="1.1837724"
                id="rect1081"
                style="opacity:0.95800003;fill:#000000;fill-opacity:1;stroke:#000000;stroke-width:0.28346455;stroke-linecap:butt;stroke-miterlimit:3;stroke-dasharray:none;stroke-dashoffset:0;stroke-opacity:1"/>
        <rect
                y="496.58221"
                x="521.69983"
                height="1.1837724"
                width="1.1837724"
                id="rect1081-7"
                style="opacity:0.95800003;isolation:isolate;fill:#000000;fill-opacity:1;stroke:#000000;stroke-width:0.28346455;stroke-linecap:butt;stroke-miterlimit:3;stroke-dasharray:none;stroke-dashoffset:0;stroke-opacity:1"/>
        <rect
                y="501.10422"
                x="518.92981"
                height="1.1837724"
                width="1.1837724"
                id="rect1081-0"
                style="opacity:0.95800003;isolation:isolate;fill:#000000;fill-opacity:1;stroke:#000000;stroke-width:0.28346455;stroke-linecap:butt;stroke-miterlimit:3;stroke-dasharray:none;stroke-dashoffset:0;stroke-opacity:1"/>
        <rect
                y="492.67575"
                x="510.90384"
                height="1.1837724"
                width="1.1837724"
                id="rect1081-3"
                style="opacity:0.95800003;isolation:isolate;fill:#000000;fill-opacity:1;stroke:#000000;stroke-width:0.28346455;stroke-linecap:butt;stroke-miterlimit:3;stroke-dasharray:none;stroke-dashoffset:0;stroke-opacity:1"/>
        <rect
                y="491.98917"
                x="520.20831"
                height="1.1837724"
                width="1.1837724"
                id="rect1081-01"
                style="opacity:0.95800003;isolation:isolate;fill:#000000;fill-opacity:1;stroke:#000000;stroke-width:0.28346455;stroke-linecap:butt;stroke-miterlimit:3;stroke-dasharray:none;stroke-dashoffset:0;stroke-opacity:1"/>
        <rect
                y="491.56302"
                x="524.75397"
                height="1.1837724"
                width="1.1837724"
                id="rect1081-8"
                style="opacity:0.95800003;isolation:isolate;fill:#000000;fill-opacity:1;stroke:#000000;stroke-width:0.28346455;stroke-linecap:butt;stroke-miterlimit:3;stroke-dasharray:none;stroke-dashoffset:0;stroke-opacity:1"/>
        <rect
                y="504.44244"
                x="513.05829"
                height="1.1837724"
                width="1.1837724"
                id="rect1081-86"
                style="opacity:0.95800003;isolation:isolate;fill:#000000;fill-opacity:1;stroke:#000000;stroke-width:0.28346455;stroke-linecap:butt;stroke-miterlimit:3;stroke-dasharray:none;stroke-dashoffset:0;stroke-opacity:1"/>
        <rect
                y="508.58566"
                x="510.21725"
                height="1.1837724"
                width="1.1837724"
                id="rect1081-6"
                style="opacity:0.95800003;isolation:isolate;fill:#000000;fill-opacity:1;stroke:#000000;stroke-width:0.28346455;stroke-linecap:butt;stroke-miterlimit:3;stroke-dasharray:none;stroke-dashoffset:0;stroke-opacity:1"/>
        <rect
                y="514.24408"
                x="513.31873"
                height="1.1837724"
                width="1.1837724"
                id="rect1081-1"
                style="opacity:0.95800003;isolation:isolate;fill:#000000;fill-opacity:1;stroke:#000000;stroke-width:0.28346455;stroke-linecap:butt;stroke-miterlimit:3;stroke-dasharray:none;stroke-dashoffset:0;stroke-opacity:1"/>
        <rect
                y="515.56995"
                x="517.81708"
                height="1.1837724"
                width="1.1837724"
                id="rect1081-017"
                style="opacity:0.95800003;isolation:isolate;fill:#000000;fill-opacity:1;stroke:#000000;stroke-width:0.28346455;stroke-linecap:butt;stroke-miterlimit:3;stroke-dasharray:none;stroke-dashoffset:0;stroke-opacity:1"/>
        <rect
                y="514.43347"
                x="525.41687"
                height="1.1837724"
                width="1.1837724"
                id="rect1081-4"
                style="opacity:0.95800003;isolation:isolate;fill:#000000;fill-opacity:1;stroke:#000000;stroke-width:0.28346455;stroke-linecap:butt;stroke-miterlimit:3;stroke-dasharray:none;stroke-dashoffset:0;stroke-opacity:1"/>
        <rect
                y="507.21249"
                x="526.71906"
                height="1.1837724"
                width="1.1837724"
                id="rect1081-03"
                style="opacity:0.95800003;isolation:isolate;fill:#000000;fill-opacity:1;stroke:#000000;stroke-width:0.28346455;stroke-linecap:butt;stroke-miterlimit:3;stroke-dasharray:none;stroke-dashoffset:0;stroke-opacity:1"/>
        <rect
                y="506.31281"
                x="523.35712"
                height="1.1837724"
                width="1.1837724"
                id="rect1081-32"
                style="opacity:0.95800003;isolation:isolate;fill:#000000;fill-opacity:1;stroke:#000000;stroke-width:0.28346455;stroke-linecap:butt;stroke-miterlimit:3;stroke-dasharray:none;stroke-dashoffset:0;stroke-opacity:1"/>
        <rect
                y="510.52704"
                x="519.19025"
                height="1.1837724"
                width="1.1837724"
                id="rect1081-9"
                style="opacity:0.95800003;isolation:isolate;fill:#000000;fill-opacity:1;stroke:#000000;stroke-width:0.28346455;stroke-linecap:butt;stroke-miterlimit:3;stroke-dasharray:none;stroke-dashoffset:0;stroke-opacity:1"/>
        <rect
                y="508.70404"
                x="517.15417"
                height="1.1837724"
                width="1.1837724"
                id="rect1081-2"
                style="opacity:0.95800003;isolation:isolate;fill:#000000;fill-opacity:1;stroke:#000000;stroke-width:0.28346455;stroke-linecap:butt;stroke-miterlimit:3;stroke-dasharray:none;stroke-dashoffset:0;stroke-opacity:1"/>
        <rect
                y="505.86298"
                x="519.37964"
                height="1.1837724"
                width="1.1837724"
                id="rect1081-05"
                style="opacity:0.95800003;isolation:isolate;fill:#000000;fill-opacity:1;stroke:#000000;stroke-width:0.28346455;stroke-linecap:butt;stroke-miterlimit:3;stroke-dasharray:none;stroke-dashoffset:0;stroke-opacity:1"/>
        <rect
                y="503.04559"
                x="525.53528"
                height="1.1837724"
                width="1.1837724"
                id="rect1081-81"
                style="opacity:0.95800003;isolation:isolate;fill:#000000;fill-opacity:1;stroke:#000000;stroke-width:0.28346455;stroke-linecap:butt;stroke-miterlimit:3;stroke-dasharray:none;stroke-dashoffset:0;stroke-opacity:1"/>
        <rect
                y="499.92044"
                x="508.27588"
                height="1.1837724"
                width="1.1837724"
                id="rect1081-77"
                style="opacity:0.95800003;isolation:isolate;fill:#000000;fill-opacity:1;stroke:#000000;stroke-width:0.28346455;stroke-linecap:butt;stroke-miterlimit:3;stroke-dasharray:none;stroke-dashoffset:0;stroke-opacity:1"/>
        <rect
                y="498.12112"
                x="527.23993"
                height="1.1837724"
                width="1.1837724"
                id="rect1081-057"
                style="opacity:0.95800003;isolation:isolate;fill:#000000;fill-opacity:1;stroke:#000000;stroke-width:0.28346455;stroke-linecap:butt;stroke-miterlimit:3;stroke-dasharray:none;stroke-dashoffset:0;stroke-opacity:1"/>
      </g>
    </g>
  </g>
</svg>
